<svg height='100px' width='100px'  fill="#000000" xmlns="http://www.w3.org/2000/svg" xmlns:xlink="http://www.w3.org/1999/xlink" version="1.1" x="0px" y="0px" viewBox="0 0 100 100" enable-background="new 0 0 100 100" xml:space="preserve"><path d="M4.866,94.935l2.16-3.171c0,0,0.665-1.259,2.129-1.293c0.834-0.019,1.305-0.009,1.492,0l2.636,4.913  c-0.024,0.024-0.048,0.055-0.062,0.068c-0.707,0.76-1.372,2.022-3.263,2.206c-1.67,0.167-3.483,0.154-3.483,0.154l1.844-3.212  L4.866,94.935z"></path><path d="M14.08,86.593c1.708-2.327,1.958-3.187,2.792-4.968c0.443-0.959,0.759-2.313,2.876-2.516  c2.115-0.206,5.955-0.844,5.814-3.825c-0.216-4.509-0.476-11.282-0.476-11.282s-0.367-2.849,0.441-5.717l0.269-2.387  c-0.643-0.966-1.302-1.975-1.878-2.9c-1.672-2.685-2.826-3.521-4.386-4.514c-0.981-0.624-2.135-1.065-2.122-1.807  c0.018-0.89,2.428-0.417,6.776,0.034c1.536,0.163,2.534,1.181,3.182,2.039c0.628,0.838,1.681,2.232,2.751,3.648  c5.234-3.325,11.388-1.271,20.025-1.483c0.349-0.006,0.695-0.019,1.351-0.053l4.087,21.458c-1.052-0.006-1.593-0.069-2.122-0.161  c-0.252-0.044-0.498-0.088-0.734-0.144c-0.402-0.091-0.785-0.177-1.158-0.265c-4.781-1.117-7.175-1.872-10.588-1.183l-3.586,8.52  c0,0-1.171,3.036-4.933,3.624c-3.762,0.59-9.746,1.506-9.746,1.506s-6.284,7.49-8.651,10.264l-2.562-4.773  C12.113,89.056,13.043,88.006,14.08,86.593z"></path><path d="M42.323,6.583c1.012-0.949,2.262,0.859,4.303,3.329c2.738,3.309,5.366,3.947,6.683,2.618c1.59-1.595,0.096-4.43-0.729-5.911  c-0.698-1.264-2.376-3.333-1.316-4.216c0.873-0.731,1.955,0.431,3.233,2.745c1.283,2.312,1.88,4.052,2.189,7.837  c0.127,1.546,0.861,2.551,1.906,3.675c1.405,1.514,4.148,3.374,5.57,4.147c0.261,0.144,0.526,0.274,0.796,0.401  c1.445-2.255,0.622-4.37-0.071-6.057c-0.497-1.198-0.665-2.105,0.04-2.521c0.96-0.569,1.738,0.536,2.544,2.479  c1.48,3.587,0.554,6.097,0.065,7.042c2.561,0.68,5.203,0.664,7.533-0.059c1.228-0.406,2.868-1.106,3.937-2.666  c0.67-0.976,1.156-2.041,1.092-4.771c-0.044-2.006-0.571-3.635,0.619-3.916c1.133-0.27,1.626,1.85,1.709,3.477  c0.102,2.111-0.052,3.863-0.678,5.303c-0.75,1.72-2.011,2.902-3.139,3.678l2.17,4.825c0.809-0.089,1.777-0.03,2.891,0.336  c3.458,1.143,8.038,2.262,9.948,2.628c1.911,0.37,2.832,0.596,2.635,2.39c-0.18,1.572-0.398,3.142-3.137,3.06  c-2.74-0.078-5.155,0.548-6.258,1.896c-1.099,1.347-1.24,4.316-0.52,6.384c0.724,2.067,1.534,4.197-0.558,7.501  c-1.904,3.017-5.064,7.969-5.064,7.969s-0.423,0.768-1.325,1.9c2.269,0.367,6.151,1.017,8.094,1.416  c3.201,0.665,5.26,3.669,3.468,7.086c-1.569,2.998-4.966,9.72-5.773,11.323l-2.062-4.578c0.174-0.881,0.517-1.79,0.95-2.78  c1.104-2.546,2.505-5.784,2.505-5.784s-4.293-0.066-9.182,0.349c-1.967,0.171-3.771-0.303-5.223-0.926  c-0.853,0.461-1.774,0.896-2.782,1.272c-0.206,0.082-0.416,0.166-0.636,0.247c-0.767,0.285-1.521,0.54-2.268,0.783l-4.08-21.437  c2.93-0.948,4.99-2.123,6.419-3.195c5.449-4.096,6.081-10.738,7.074-13.62c0.199-0.578,0.407-1.049,0.617-1.438l-2.614-5.88  c-0.33,0.031-0.538,0.035-0.538,0.035c-9.709,0.719-14.799-5.084-16.347-6.55c-1.541-1.463-2.334-2.374-4.576-2.531  c-3.411-0.233-5.252-1.561-7.62-4.291C43.03,9.525,41.359,7.49,42.323,6.583z"></path><path d="M84.84,83.688c-0.604,1.986-2.415,4.647-2.415,4.647l-2.155-4.778l2.741-3.915L84.84,83.688z"></path><path d="M54.479,52.936c0.238,1.266,1.45,2.089,2.712,1.852c1.26-0.242,2.09-1.457,1.851-2.722  c-0.239-1.254-1.458-2.079-2.718-1.839C55.062,50.467,54.237,51.683,54.479,52.936z M56.136,61.644  c0.241,1.265,1.448,2.087,2.716,1.847c1.259-0.24,2.089-1.449,1.848-2.717c-0.241-1.262-1.457-2.077-2.716-1.84  C56.721,59.175,55.896,60.381,56.136,61.644z M57.67,69.728c0.245,1.27,1.457,2.093,2.721,1.855c1.26-0.242,2.088-1.457,1.85-2.723  c-0.241-1.26-1.46-2.083-2.719-1.844C58.259,67.259,57.436,68.472,57.67,69.728z M65.594,71.385  c-0.869,0.166-7.937,1.511-8.809,1.676c-0.18-0.959-4.15-21.801-4.333-22.759c0.87-0.166,7.938-1.512,8.808-1.679  C61.441,49.582,65.414,70.426,65.594,71.385z"></path></svg>